<?xml version="1.0"?>
<svg width="425.682" height="425.681" xmlns="http://www.w3.org/2000/svg" xmlns:svg="http://www.w3.org/2000/svg" version="1.1" xml:space="preserve">
 <g class="layer">
  <title>Layer 1</title>
  <g id="svg_1">
   <g id="svg_2">
    <path d="m419.51,200.8c0.61,-60.59 7.34,-121.79 -4.28,-181.77c-0.62,-3.67 -4.9,-6.73 -9.18,-6.73c-65.49,0.61 -130.97,0.61 -197.07,1.23c-64.26,0 -131.58,-4.29 -195.84,3.67c-1.22,0 -2.45,0.61 -3.06,1.22c-3.67,1.23 -6.12,3.67 -6.73,7.96c-4.28,63.65 -3.67,127.91 -2.45,191.55c1.23,61.2 1.84,122.4 13.47,182.38c0.61,4.28 4.89,6.73 9.18,6.73c68.54,3.06 137.08,-1.83 205.63,-2.45c33.05,0 66.71,0.62 99.75,4.29c14.69,1.22 29.99,5.51 44.68,4.28c14.69,-1.22 27.54,-7.95 42.84,-6.73c4.9,0 9.79,-4.28 9.18,-9.18c-4.9,-64.87 -6.12,-130.97 -6.12,-196.45zm-148.11,-42.84c42.85,0 85.07,0.61 127.91,1.83c1.23,0 2.45,-0.61 3.06,-1.22c-0.61,18.36 -1.22,36.11 -1.22,53.86c0,14.68 0,28.76 0,43.45c-42.84,-0.61 -85.07,0.61 -127.91,2.44c-0.61,-33.04 -1.22,-66.7 -1.84,-100.36zm131.59,-6.12c-0.62,-0.61 -1.84,-1.84 -3.06,-1.84c-42.23,-3.06 -85.07,-4.89 -128.53,-5.51c-1.22,-37.33 -3.06,-75.27 -4.89,-112.6c44.06,0 88.13,-0.62 132.8,-0.62c6.12,39.17 4.9,80.18 3.68,120.57zm-140.76,-119.95c-1.84,37.33 -3.06,75.27 -3.06,113.22c-41.01,0 -82.62,0.61 -123.63,3.06c-1.84,-37.95 -3.67,-75.89 -7.34,-113.84c27.54,-0.61 55.08,-1.22 82,-1.83c17.14,-0.61 34.28,-0.61 52.03,-0.61zm-126.69,127.29c41.01,-0.61 82.01,-1.22 123.01,-1.22c0,33.66 1.23,67.93 1.84,101.59c-14.08,0.61 -28.76,1.23 -42.84,2.45c-26.32,1.22 -52.63,2.45 -78.95,4.28c0,-36.11 -1.22,-71.6 -3.06,-107.1zm-115.06,-128.52c33.66,3.06 67.32,3.67 101.6,3.06c-0.61,37.95 -0.61,76.5 0,114.45c-35.5,2.44 -70.38,5.5 -105.27,9.79c0,-42.23 0.62,-84.46 3.67,-127.3zm-2.44,176.26c0,-14.69 -0.61,-29.99 -0.61,-44.68c34.88,-1.22 70.38,-1.83 105.26,-3.06c0.61,35.5 2.45,71.61 3.67,107.1c-9.18,0.61 -18.36,1.23 -26.93,2.45c-11.01,0.61 -22.03,1.84 -32.43,2.45c-15.91,0.61 -31.21,0.61 -47.13,3.06c-1.22,-22.65 -1.83,-44.68 -1.83,-67.32zm12.85,182.37c-6.73,-34.88 -9.18,-69.76 -11.02,-105.26c15.92,0.61 31.22,-1.84 47.13,-3.67c3.06,-0.62 5.51,-0.62 8.57,-0.62c6.12,0 12.24,-0.61 18.97,-0.61c2.45,0 4.89,0 7.34,-0.61c8.57,-0.61 16.53,-0.61 25.09,-1.22c1.84,37.33 3.68,74.66 5.51,111.99c-34.27,0.62 -67.93,1.23 -101.59,0zm110.16,-0.61c-0.61,-37.33 -1.22,-74.66 -1.84,-111.99c28.16,-1.84 56.31,-3.68 85.07,-4.29c12.24,-0.61 25.09,-0.61 37.33,-1.22c1.23,38.55 3.06,77.11 4.9,115.67c0,0.61 0,0.61 0,1.22c-12.85,-1.22 -25.09,-1.22 -37.94,-1.22c-29.38,0 -58.14,1.22 -87.52,1.83zm241.74,4.9c-16.52,3.06 -32.44,0.61 -48.96,-1.23c-19.58,-2.44 -39.17,-3.67 -58.75,-4.28c0,-0.61 0,-0.61 0,-1.22c-1.23,-38.56 -1.23,-77.12 -1.84,-115.67c42.84,-0.61 85.68,-1.23 127.91,-3.06c0.61,40.39 1.84,80.78 3.67,121.17c-6.73,0.62 -14.07,2.45 -22.03,4.29z" id="svg_12"/>
   </g>
  </g>
 </g>
</svg>