<?xml version="1.0"?>
<svg width="425.682" height="425.681" xmlns="http://www.w3.org/2000/svg" xmlns:svg="http://www.w3.org/2000/svg" version="1.1" xml:space="preserve">
 <g class="layer">
  <title>Layer 1</title>
  <g id="svg_1">
   <g id="svg_2">
    <path d="m67.5,366.05c39.99,-20.03 80.06,-50.05 120.05,-75.07c35.08,45.06 80.14,100.09 130.19,115.14c35,9.98 60.02,-20.03 55.03,-55.12c-10.06,-44.98 -55.03,-85.05 -95.1,-120.05c50.05,-30.09 100.09,-60.1 135.09,-105.16c25.02,-35 -14.96,-85.05 -60.02,-75.07c-60.02,20.03 -110.07,70.08 -155.13,105.16c-40.07,-40.07 -80.06,-80.14 -130.1,-105.16c-35.08,-14.96 -65.09,15.05 -50.05,50.05c19.95,45.06 60.02,85.13 95.02,120.13c-35,25.02 -70,55.03 -100.09,85.13c-25.02,25.02 15.05,80.06 55.12,60.02z" id="svg_8"/>
   </g>
  </g>
 </g>
</svg>